<svg width="45" height="45" viewBox="0 0 45 45" fill="none" xmlns="http://www.w3.org/2000/svg">
<g clip-path="url(#clip0_6_8)">
<path d="M42.1875 19.6875H2.8125C1.2593 19.6875 0 20.9468 0 22.5C0 24.0532 1.2593 25.3125 2.8125 25.3125H42.1875C43.7407 25.3125 45 24.0532 45 22.5C45 20.9468 43.7407 19.6875 42.1875 19.6875Z" fill="white"/>
<path d="M42.1875 32.8121H2.8125C1.2593 32.8121 0 34.0714 0 35.6246C0 37.1778 1.2593 38.4371 2.8125 38.4371H42.1875C43.7407 38.4371 45 37.1778 45 35.6246C45 34.0714 43.7407 32.8121 42.1875 32.8121Z" fill="white"/>
<path d="M2.8125 12.188H42.1875C43.7407 12.188 45 10.9287 45 9.37549C45 7.82229 43.7407 6.56299 42.1875 6.56299H2.8125C1.2593 6.56299 0 7.82091 0 9.37549C0 10.9287 1.2593 12.188 2.8125 12.188Z" fill="white"/>
</g>
<defs>
<clipPath id="clip0_6_8">
<rect width="45" height="45" fill="white"/>
</clipPath>
</defs>
</svg>
